<?xml version="1.0" standalone="no"?>
<!DOCTYPE svg PUBLIC "-//W3C//DTD SVG 20010904//EN"
 "http://www.w3.org/TR/2001/REC-SVG-20010904/DTD/svg10.dtd">
<svg version="1.0" xmlns="http://www.w3.org/2000/svg"
 width="512.000000pt" height="512.000000pt" viewBox="0 0 512.000000 512.000000"
 preserveAspectRatio="xMidYMid meet">
<metadata>
Created by potrace 1.11, written by Peter Selinger 2001-2013
</metadata>
<g transform="translate(0.000000,512.000000) scale(0.100000,-0.100000)"
fill="#000000" stroke="none">
<path d="M1282 5105 c-86 -27 -150 -86 -190 -175 l-25 -55 -1 -609 -1 -608
-90 -33 c-153 -55 -334 -156 -430 -240 -302 -264 -452 -542 -511 -945 -7 -52
-8 -271 0 -315 3 -16 10 -59 15 -95 20 -123 84 -304 151 -427 166 -302 455
-546 785 -661 l80 -28 1 -299 c0 -165 4 -327 8 -360 14 -113 114 -220 228
-245 33 -7 614 -10 1787 -10 1906 0 1792 -4 1878 59 57 41 100 108 116 178 11
47 13 423 12 1948 -2 2078 2 1929 -60 2011 -14 18 -213 221 -442 450 -307 307
-431 424 -468 443 l-50 26 -1375 2 c-1128 2 -1383 -1 -1418 -12z"/>
</g>
</svg>
